<?xml version="1.0" encoding="UTF-8" standalone="no"?>
<svg
   xmlns:dc="http://purl.org/dc/elements/1.1/"
   xmlns:cc="http://creativecommons.org/ns#"
   xmlns:rdf="http://www.w3.org/1999/02/22-rdf-syntax-ns#"
   xmlns:svg="http://www.w3.org/2000/svg"
   xmlns="http://www.w3.org/2000/svg"
   xmlns:sodipodi="http://sodipodi.sourceforge.net/DTD/sodipodi-0.dtd"
   xmlns:inkscape="http://www.inkscape.org/namespaces/inkscape"
   width="225"
   version="1.1"
   height="32.5"
   viewBox="0 0 179.99999 25.999999"
   id="svg2"
   inkscape:version="0.48.5 r10040"
   sodipodi:docname="punktLine.svg">
  <metadata
     id="metadata11">
    <rdf:RDF>
      <cc:Work
         rdf:about="">
        <dc:format>image/svg+xml</dc:format>
        <dc:type
           rdf:resource="http://purl.org/dc/dcmitype/StillImage" />
      </cc:Work>
    </rdf:RDF>
  </metadata>
  <sodipodi:namedview
     pagecolor="#ffffff"
     bordercolor="#666666"
     borderopacity="1"
     objecttolerance="10"
     gridtolerance="10"
     guidetolerance="10"
     inkscape:pageopacity="0"
     inkscape:pageshadow="2"
     inkscape:window-width="1920"
     inkscape:window-height="1014"
     id="namedview9"
     showgrid="false"
     units="px"
     inkscape:zoom="5.8587224"
     inkscape:cx="84.903773"
     inkscape:cy="66.318878"
     inkscape:window-x="0"
     inkscape:window-y="27"
     inkscape:window-maximized="1"
     inkscape:current-layer="svg2" />
  <defs
     id="defs4" />
  <g
     id="Hintergrund"
     transform="matrix(1.0039376,0,0,1,-166.46791,-108.65)">
    <path
       style="fill:#000d17;fill-rule:evenodd;stroke:none"
       d="M 0.25,0.5 C 0.3877,0.5 0.5,0.388 0.5,0.25 0.5,0.112 0.3877,0 0.25,0 0.1123,0 0,0.112 0,0.25 0,0.388 0.1123,0.5 0.25,0.5 z m 1.5019,0 c 0.1387,0 0.25,-0.112 0.25,-0.25 0,-0.138 -0.1113,-0.25 -0.25,-0.25 -0.1377,0 -0.25,0.112 -0.25,0.25 0,0.138 0.1123,0.25 0.25,0.25 z m 1.503,0 c 0.1377,0 0.25,-0.112 0.25,-0.25 0,-0.138 -0.1123,-0.25 -0.25,-0.25 -0.1377,0 -0.25,0.112 -0.25,0.25 0,0.138 0.1123,0.25 0.25,0.25 z m 1.5029,0 c 0.1377,0 0.25,-0.112 0.25,-0.25 0,-0.138 -0.1123,-0.25 -0.25,-0.25 -0.1387,0 -0.25,0.112 -0.25,0.25 0,0.138 0.1113,0.25 0.25,0.25 z m 1.5019,0 c 0.1377,0 0.25,-0.112 0.25,-0.25 0,-0.138 -0.1123,-0.25 -0.25,-0.25 -0.1377,0 -0.25,0.112 -0.25,0.25 0,0.138 0.1123,0.25 0.25,0.25 z m 1.503,0 c 0.1377,0 0.25,-0.112 0.25,-0.25 0,-0.138 -0.1123,-0.25 -0.25,-0.25 -0.1387,0 -0.25,0.112 -0.25,0.25 0,0.138 0.1113,0.25 0.25,0.25 z m 1.5019,0 c 0.1387,0 0.25,-0.112 0.25,-0.25 0,-0.138 -0.1113,-0.25 -0.25,-0.25 -0.1377,0 -0.25,0.112 -0.25,0.25 0,0.138 0.1123,0.25 0.25,0.25 z m 1.503,0 c 0.1377,0 0.25,-0.112 0.25,-0.25 0,-0.138 -0.1123,-0.25 -0.25,-0.25 -0.1387,0 -0.25,0.112 -0.25,0.25 0,0.138 0.1113,0.25 0.25,0.25 z m 1.5019,0 c 0.1387,0 0.25,-0.112 0.25,-0.25 0,-0.138 -0.1113,-0.25 -0.25,-0.25 -0.1377,0 -0.25,0.112 -0.25,0.25 0,0.138 0.1123,0.25 0.25,0.25 z m 1.5029,0 c 0.1377,0 0.25,-0.112 0.25,-0.25 0,-0.138 -0.1123,-0.25 -0.25,-0.25 -0.1386,0 -0.25,0.112 -0.25,0.25 0,0.138 0.1114,0.25 0.25,0.25 z m 1.502,0 c 0.1387,0 0.25,-0.112 0.25,-0.25 0,-0.138 -0.1113,-0.25 -0.25,-0.25 -0.1377,0 -0.25,0.112 -0.25,0.25 0,0.138 0.1123,0.25 0.25,0.25 z m 1.5029,0 c 0.1377,0 0.25,-0.112 0.25,-0.25 0,-0.138 -0.1123,-0.25 -0.25,-0.25 -0.1387,0 -0.25,0.112 -0.25,0.25 0,0.138 0.1113,0.25 0.25,0.25 z m 1.502,0 c 0.1386,0 0.25,-0.112 0.25,-0.25 0,-0.138 -0.1114,-0.25 -0.25,-0.25 -0.1377,0 -0.25,0.112 -0.25,0.25 0,0.138 0.1123,0.25 0.25,0.25 z m 1.5029,0 c 0.1377,0 0.25,-0.112 0.25,-0.25 0,-0.138 -0.1123,-0.25 -0.25,-0.25 -0.1377,0 -0.25,0.112 -0.25,0.25 0,0.138 0.1123,0.25 0.25,0.25 z m 1.5029,0 c 0.1377,0 0.25,-0.112 0.25,-0.25 0,-0.138 -0.1123,-0.25 -0.25,-0.25 -0.1386,0 -0.25,0.112 -0.25,0.25 0,0.138 0.1114,0.25 0.25,0.25 z m 1.502,0 c 0.1377,0 0.25,-0.112 0.25,-0.25 0,-0.138 -0.1123,-0.25 -0.25,-0.25 -0.1377,0 -0.25,0.112 -0.25,0.25 0,0.138 0.1123,0.25 0.25,0.25 z m 1.5029,0 c 0.1377,0 0.25,-0.112 0.25,-0.25 C 24.54,0.112 24.4277,0 24.29,0 c -0.1387,0 -0.25,0.112 -0.25,0.25 0,0.138 0.1113,0.25 0.25,0.25 z m 1.502,0 c 0.1386,0 0.25,-0.112 0.25,-0.25 0,-0.138 -0.1114,-0.25 -0.25,-0.25 -0.1377,0 -0.25,0.112 -0.25,0.25 0,0.138 0.1123,0.25 0.25,0.25 z m 1.5029,0 c 0.1377,0 0.25,-0.112 0.25,-0.25 0,-0.138 -0.1123,-0.25 -0.25,-0.25 -0.1387,0 -0.25,0.112 -0.25,0.25 0,0.138 0.1113,0.25 0.25,0.25 z m 1.502,0 c 0.1386,0 0.25,-0.112 0.25,-0.25 0,-0.138 -0.1114,-0.25 -0.25,-0.25 -0.1377,0 -0.25,0.112 -0.25,0.25 0,0.138 0.1123,0.25 0.25,0.25 z m 1.5029,0 c 0.1377,0 0.25,-0.112 0.25,-0.25 0,-0.138 -0.1123,-0.25 -0.25,-0.25 -0.1387,0 -0.25,0.112 -0.25,0.25 0,0.138 0.1113,0.25 0.25,0.25 z m 1.5019,0 c 0.1387,0 0.25,-0.112 0.25,-0.25 0,-0.138 -0.1113,-0.25 -0.25,-0.25 -0.1377,0 -0.25,0.112 -0.25,0.25 0,0.138 0.1123,0.25 0.25,0.25 z m 1.503,0 c 0.1377,0 0.25,-0.112 0.25,-0.25 0,-0.138 -0.1123,-0.25 -0.25,-0.25 -0.1387,0 -0.25,0.112 -0.25,0.25 0,0.138 0.1113,0.25 0.25,0.25 z m 1.5019,0 c 0.1387,0 0.25,-0.112 0.25,-0.25 0,-0.138 -0.1113,-0.25 -0.25,-0.25 -0.1377,0 -0.25,0.112 -0.25,0.25 0,0.138 0.1123,0.25 0.25,0.25 z m 1.5029,0 c 0.1377,0 0.25,-0.112 0.25,-0.25 0,-0.138 -0.1123,-0.25 -0.25,-0.25 -0.1376,0 -0.25,0.112 -0.25,0.25 0,0.138 0.1124,0.25 0.25,0.25 z m 1.502,0 c 0.1387,0 0.25,-0.112 0.25,-0.25 0,-0.138 -0.1113,-0.25 -0.25,-0.25 -0.1377,0 -0.25,0.112 -0.25,0.25 0,0.138 0.1123,0.25 0.25,0.25 z m 1.503,0 c 0.138,0 0.25,-0.112 0.25,-0.25 0,-0.138 -0.112,-0.25 -0.25,-0.25 -0.138,0 -0.25,0.112 -0.25,0.25 0,0.138 0.112,0.25 0.25,0.25 z m 1.502,0 c 0.138,0 0.25,-0.112 0.25,-0.25 0,-0.138 -0.112,-0.25 -0.25,-0.25 -0.138,0 -0.25,0.112 -0.25,0.25 0,0.138 0.112,0.25 0.25,0.25 z m 1.503,0 c 0.138,0 0.25,-0.112 0.25,-0.25 0,-0.138 -0.112,-0.25 -0.25,-0.25 -0.138,0 -0.25,0.112 -0.25,0.25 0,0.138 0.112,0.25 0.25,0.25 z m 1.502,0 c 0.138,0 0.25,-0.112 0.25,-0.25 0,-0.138 -0.112,-0.25 -0.25,-0.25 -0.138,0 -0.25,0.112 -0.25,0.25 0,0.138 0.112,0.25 0.25,0.25 z m 1.503,0 c 0.138,0 0.25,-0.112 0.25,-0.25 0,-0.138 -0.112,-0.25 -0.25,-0.25 -0.138,0 -0.25,0.112 -0.25,0.25 0,0.138 0.112,0.25 0.25,0.25 z m 1.502,0 c 0.138,0 0.25,-0.112 0.25,-0.25 0,-0.138 -0.112,-0.25 -0.25,-0.25 -0.138,0 -0.25,0.112 -0.25,0.25 0,0.138 0.112,0.25 0.25,0.25 z m 1.503,0 c 0.138,0 0.25,-0.112 0.25,-0.25 0,-0.138 -0.112,-0.25 -0.25,-0.25 -0.138,0 -0.25,0.112 -0.25,0.25 0,0.138 0.112,0.25 0.25,0.25 z m 1.502,0 c 0.138,0 0.25,-0.112 0.25,-0.25 0,-0.138 -0.112,-0.25 -0.25,-0.25 -0.138,0 -0.25,0.112 -0.25,0.25 0,0.138 0.112,0.25 0.25,0.25 z m 1.503,0 c 0.138,0 0.25,-0.112 0.25,-0.25 0,-0.138 -0.112,-0.25 -0.25,-0.25 -0.138,0 -0.25,0.112 -0.25,0.25 0,0.138 0.112,0.25 0.25,0.25 z m 1.502,0 c 0.138,0 0.25,-0.112 0.25,-0.25 0,-0.138 -0.112,-0.25 -0.25,-0.25 -0.138,0 -0.25,0.112 -0.25,0.25 0,0.138 0.112,0.25 0.25,0.25 z m 1.503,0 c 0.138,0 0.25,-0.112 0.25,-0.25 0,-0.138 -0.112,-0.25 -0.25,-0.25 -0.138,0 -0.25,0.112 -0.25,0.25 0,0.138 0.112,0.25 0.25,0.25 z m 1.502,0 c 0.138,0 0.25,-0.112 0.25,-0.25 0,-0.138 -0.112,-0.25 -0.25,-0.25 -0.138,0 -0.25,0.112 -0.25,0.25 0,0.138 0.112,0.25 0.25,0.25 z m 1.503,0 c 0.138,0 0.25,-0.112 0.25,-0.25 0,-0.138 -0.112,-0.25 -0.25,-0.25 -0.138,0 -0.25,0.112 -0.25,0.25 0,0.138 0.112,0.25 0.25,0.25 z m 1.502,0 c 0.138,0 0.25,-0.112 0.25,-0.25 0,-0.138 -0.112,-0.25 -0.25,-0.25 -0.138,0 -0.25,0.112 -0.25,0.25 0,0.138 0.112,0.25 0.25,0.25 z m 1.503,0 c 0.138,0 0.25,-0.112 0.25,-0.25 0,-0.138 -0.112,-0.25 -0.25,-0.25 -0.138,0 -0.25,0.112 -0.25,0.25 0,0.138 0.112,0.25 0.25,0.25 z m 1.502,0 c 0.138,0 0.25,-0.112 0.25,-0.25 0,-0.138 -0.112,-0.25 -0.25,-0.25 -0.138,0 -0.25,0.112 -0.25,0.25 0,0.138 0.112,0.25 0.25,0.25 z m 1.503,0 c 0.138,0 0.25,-0.112 0.25,-0.25 0,-0.138 -0.112,-0.25 -0.25,-0.25 -0.139,0 -0.25,0.112 -0.25,0.25 0,0.138 0.111,0.25 0.25,0.25 z m 1.502,0 c 0.138,0 0.25,-0.112 0.25,-0.25 0,-0.138 -0.112,-0.25 -0.25,-0.25 -0.138,0 -0.25,0.112 -0.25,0.25 0,0.138 0.112,0.25 0.25,0.25 z m 1.503,0 c 0.138,0 0.25,-0.112 0.25,-0.25 0,-0.138 -0.112,-0.25 -0.25,-0.25 -0.139,0 -0.25,0.112 -0.25,0.25 0,0.138 0.111,0.25 0.25,0.25 z m 1.502,0 c 0.138,0 0.25,-0.112 0.25,-0.25 0,-0.138 -0.112,-0.25 -0.25,-0.25 -0.138,0 -0.25,0.112 -0.25,0.25 0,0.138 0.112,0.25 0.25,0.25 z m 1.502,0 c 0.139,0 0.25,-0.112 0.25,-0.25 0,-0.138 -0.111,-0.25 -0.25,-0.25 -0.138,0 -0.25,0.112 -0.25,0.25 0,0.138 0.112,0.25 0.25,0.25 z m 1.503,0 c 0.138,0 0.25,-0.112 0.25,-0.25 0,-0.138 -0.112,-0.25 -0.25,-0.25 -0.138,0 -0.25,0.112 -0.25,0.25 0,0.138 0.112,0.25 0.25,0.25 z m 1.502,0 c 0.138,0 0.25,-0.112 0.25,-0.25 0,-0.138 -0.112,-0.25 -0.25,-0.25 -0.138,0 -0.25,0.112 -0.25,0.25 0,0.138 0.112,0.25 0.25,0.25 z m 1.503,0 c 0.138,0 0.25,-0.112 0.25,-0.25 0,-0.138 -0.112,-0.25 -0.25,-0.25 -0.138,0 -0.25,0.112 -0.25,0.25 0,0.138 0.112,0.25 0.25,0.25 z m 1.502,0 c 0.138,0 0.25,-0.112 0.25,-0.25 0,-0.138 -0.112,-0.25 -0.25,-0.25 -0.138,0 -0.25,0.112 -0.25,0.25 0,0.138 0.112,0.25 0.25,0.25 z m 1.503,0 c 0.138,0 0.25,-0.112 0.25,-0.25 0,-0.138 -0.112,-0.25 -0.25,-0.25 -0.138,0 -0.25,0.112 -0.25,0.25 0,0.138 0.112,0.25 0.25,0.25 z m 1.502,0 c 0.138,0 0.25,-0.112 0.25,-0.25 0,-0.138 -0.112,-0.25 -0.25,-0.25 -0.138,0 -0.25,0.112 -0.25,0.25 0,0.138 0.112,0.25 0.25,0.25 z m 1.503,0 c 0.138,0 0.25,-0.112 0.25,-0.25 0,-0.138 -0.112,-0.25 -0.25,-0.25 -0.138,0 -0.25,0.112 -0.25,0.25 0,0.138 0.112,0.25 0.25,0.25 z m 1.502,0 c 0.138,0 0.25,-0.112 0.25,-0.25 0,-0.138 -0.112,-0.25 -0.25,-0.25 -0.138,0 -0.25,0.112 -0.25,0.25 0,0.138 0.112,0.25 0.25,0.25 z m 1.503,0 c 0.138,0 0.25,-0.112 0.25,-0.25 0,-0.138 -0.112,-0.25 -0.25,-0.25 -0.138,0 -0.25,0.112 -0.25,0.25 0,0.138 0.112,0.25 0.25,0.25 z m 1.502,0 c 0.138,0 0.25,-0.112 0.25,-0.25 0,-0.138 -0.112,-0.25 -0.25,-0.25 -0.138,0 -0.25,0.112 -0.25,0.25 0,0.138 0.112,0.25 0.25,0.25 z m 1.503,0 c 0.138,0 0.25,-0.112 0.25,-0.25 0,-0.138 -0.112,-0.25 -0.25,-0.25 -0.138,0 -0.25,0.112 -0.25,0.25 0,0.138 0.112,0.25 0.25,0.25 z m 1.502,0 c 0.138,0 0.25,-0.112 0.25,-0.25 0,-0.138 -0.112,-0.25 -0.25,-0.25 -0.138,0 -0.25,0.112 -0.25,0.25 0,0.138 0.112,0.25 0.25,0.25 z m 1.503,0 c 0.138,0 0.25,-0.112 0.25,-0.25 0,-0.138 -0.112,-0.25 -0.25,-0.25 -0.138,0 -0.25,0.112 -0.25,0.25 0,0.138 0.112,0.25 0.25,0.25 z m 1.502,0 c 0.138,0 0.25,-0.112 0.25,-0.25 0,-0.138 -0.112,-0.25 -0.25,-0.25 -0.138,0 -0.25,0.112 -0.25,0.25 0,0.138 0.112,0.25 0.25,0.25 z m 1.503,0 c 0.138,0 0.25,-0.112 0.25,-0.25 0,-0.138 -0.112,-0.25 -0.25,-0.25 -0.138,0 -0.25,0.112 -0.25,0.25 0,0.138 0.112,0.25 0.25,0.25 z m 1.502,0 c 0.138,0 0.25,-0.112 0.25,-0.25 0,-0.138 -0.112,-0.25 -0.25,-0.25 -0.138,0 -0.25,0.112 -0.25,0.25 0,0.138 0.112,0.25 0.25,0.25 z m 1.503,0 c 0.138,0 0.25,-0.112 0.25,-0.25 0,-0.138 -0.112,-0.25 -0.25,-0.25 -0.139,0 -0.25,0.112 -0.25,0.25 0,0.138 0.111,0.25 0.25,0.25 z m 1.502,0 c 0.138,0 0.25,-0.112 0.25,-0.25 0,-0.138 -0.112,-0.25 -0.25,-0.25 -0.138,0 -0.25,0.112 -0.25,0.25 0,0.138 0.112,0.25 0.25,0.25 z m 1.503,0 c 0.138,0 0.25,-0.112 0.25,-0.25 0,-0.138 -0.112,-0.25 -0.25,-0.25 -0.139,0 -0.25,0.112 -0.25,0.25 0,0.138 0.111,0.25 0.25,0.25 z m 1.502,0 c 0.138,0 0.25,-0.112 0.25,-0.25 0,-0.138 -0.112,-0.25 -0.25,-0.25 -0.138,0 -0.25,0.112 -0.25,0.25 0,0.138 0.112,0.25 0.25,0.25 z m 1.5025,0 c 0.138,0 0.25,-0.112 0.25,-0.25 0,-0.138 -0.112,-0.25 -0.25,-0.25 -0.138,0 -0.25,0.112 -0.25,0.25 0,0.138 0.112,0.25 0.25,0.25 z m 1.502,0 c 0.138,0 0.25,-0.112 0.25,-0.25 0,-0.138 -0.112,-0.25 -0.25,-0.25 -0.138,0 -0.25,0.112 -0.25,0.25 0,0.138 0.112,0.25 0.25,0.25 z m 1.503,0 c 0.138,0 0.25,-0.112 0.25,-0.25 0,-0.138 -0.112,-0.25 -0.25,-0.25 -0.139,0 -0.25,0.112 -0.25,0.25 0,0.138 0.111,0.25 0.25,0.25 z m 1.502,0 c 0.138,0 0.25,-0.112 0.25,-0.25 0,-0.138 -0.112,-0.25 -0.25,-0.25 -0.138,0 -0.25,0.112 -0.25,0.25 0,0.138 0.112,0.25 0.25,0.25 z m 1.503,0 c 0.138,0 0.25,-0.112 0.25,-0.25 0,-0.138 -0.112,-0.25 -0.25,-0.25 -0.139,0 -0.25,0.112 -0.25,0.25 0,0.138 0.111,0.25 0.25,0.25 z m 1.502,0 c 0.138,0 0.25,-0.112 0.25,-0.25 0,-0.138 -0.112,-0.25 -0.25,-0.25 -0.137,0 -0.25,0.112 -0.25,0.25 0,0.138 0.113,0.25 0.25,0.25 z m 1.503,0 c 0.138,0 0.25,-0.112 0.25,-0.25 0,-0.138 -0.112,-0.25 -0.25,-0.25 -0.139,0 -0.25,0.112 -0.25,0.25 0,0.138 0.111,0.25 0.25,0.25 z m 1.503,0 c 0.137,0 0.25,-0.112 0.25,-0.25 0,-0.138 -0.113,-0.25 -0.25,-0.25 -0.138,0 -0.25,0.112 -0.25,0.25 0,0.138 0.112,0.25 0.25,0.25 z m 1.502,0 c 0.137,0 0.25,-0.112 0.25,-0.25 0,-0.138 -0.113,-0.25 -0.25,-0.25 -0.139,0 -0.25,0.112 -0.25,0.25 0,0.138 0.111,0.25 0.25,0.25 z m 1.503,0 c 0.137,0 0.25,-0.112 0.25,-0.25 0,-0.138 -0.113,-0.25 -0.25,-0.25 -0.138,0 -0.25,0.112 -0.25,0.25 0,0.138 0.112,0.25 0.25,0.25 z m 1.502,0 c 0.137,0 0.25,-0.112 0.25,-0.25 0,-0.138 -0.113,-0.25 -0.25,-0.25 -0.139,0 -0.25,0.112 -0.25,0.25 0,0.138 0.111,0.25 0.25,0.25 z m 1.503,0 c 0.137,0 0.25,-0.112 0.25,-0.25 0,-0.138 -0.113,-0.25 -0.25,-0.25 -0.138,0 -0.25,0.112 -0.25,0.25 0,0.138 0.112,0.25 0.25,0.25 z m 1.502,0 c 0.137,0 0.25,-0.112 0.25,-0.25 0,-0.138 -0.113,-0.25 -0.25,-0.25 -0.139,0 -0.25,0.112 -0.25,0.25 0,0.138 0.111,0.25 0.25,0.25 z m 1.502,0 c 0.138,0 0.25,-0.112 0.25,-0.25 0,-0.138 -0.112,-0.25 -0.25,-0.25 -0.137,0 -0.25,0.112 -0.25,0.25 0,0.138 0.113,0.25 0.25,0.25 z m 1.503,0 c 0.137,0 0.25,-0.112 0.25,-0.25 0,-0.138 -0.113,-0.25 -0.25,-0.25 -0.139,0 -0.25,0.112 -0.25,0.25 0,0.138 0.111,0.25 0.25,0.25 z m 1.502,0 c 0.138,0 0.25,-0.112 0.25,-0.25 0,-0.138 -0.112,-0.25 -0.25,-0.25 -0.137,0 -0.25,0.112 -0.25,0.25 0,0.138 0.113,0.25 0.25,0.25 z m 1.503,0 c 0.138,0 0.25,-0.112 0.25,-0.25 0,-0.138 -0.112,-0.25 -0.25,-0.25 -0.139,0 -0.25,0.112 -0.25,0.25 0,0.138 0.111,0.25 0.25,0.25 z m 1.502,0 c 0.138,0 0.25,-0.112 0.25,-0.25 0,-0.138 -0.112,-0.25 -0.25,-0.25 -0.137,0 -0.25,0.112 -0.25,0.25 0,0.138 0.113,0.25 0.25,0.25 z m 1.502,0 c 0.139,0 0.25,-0.112 0.25,-0.25 0,-0.138 -0.111,-0.25 -0.25,-0.25 -0.138,0 -0.25,0.112 -0.25,0.25 0,0.138 0.112,0.25 0.25,0.25 z m 1.503,0 c 0.138,0 0.25,-0.112 0.25,-0.25 0,-0.138 -0.112,-0.25 -0.25,-0.25 -0.138,0 -0.25,0.112 -0.25,0.25 0,0.138 0.112,0.25 0.25,0.25 z m 1.502,0 c 0.139,0 0.25,-0.112 0.25,-0.25 0,-0.138 -0.111,-0.25 -0.25,-0.25 -0.138,0 -0.25,0.112 -0.25,0.25 0,0.138 0.112,0.25 0.25,0.25 z m 1.504,0 c 0.137,0 0.25,-0.112 0.25,-0.25 0,-0.138 -0.113,-0.25 -0.25,-0.25 -0.139,0 -0.25,0.112 -0.25,0.25 0,0.138 0.111,0.25 0.25,0.25 z m 1.501,0 c 0.139,0 0.25,-0.112 0.25,-0.25 0,-0.138 -0.111,-0.25 -0.25,-0.25 -0.138,0 -0.25,0.112 -0.25,0.25 0,0.138 0.112,0.25 0.25,0.25 z m 1.502,0 c 0.14,0 0.25,-0.112 0.25,-0.25 0,-0.138 -0.11,-0.25 -0.25,-0.25 -0.137,0 -0.25,0.112 -0.25,0.25 0,0.138 0.113,0.25 0.25,0.25 z m 1.503,0 c 0.139,0 0.25,-0.112 0.25,-0.25 0,-0.138 -0.111,-0.25 -0.25,-0.25 -0.137,0 -0.25,0.112 -0.25,0.25 0,0.138 0.113,0.25 0.25,0.25 z m 1.502,0 c 0.14,0 0.25,-0.112 0.25,-0.25 0,-0.138 -0.11,-0.25 -0.25,-0.25 -0.137,0 -0.25,0.112 -0.25,0.25 0,0.138 0.113,0.25 0.25,0.25 z m 1.503,0 c 0.139,0 0.25,-0.112 0.25,-0.25 0,-0.138 -0.111,-0.25 -0.25,-0.25 -0.137,0 -0.25,0.112 -0.25,0.25 0,0.138 0.113,0.25 0.25,0.25 z m 1.502,0 c 0.138,0 0.25,-0.112 0.25,-0.25 0,-0.138 -0.112,-0.25 -0.25,-0.25 -0.137,0 -0.25,0.112 -0.25,0.25 0,0.138 0.113,0.25 0.25,0.25 z m 1.503,0 c 0.139,0 0.25,-0.112 0.25,-0.25 0,-0.138 -0.111,-0.25 -0.25,-0.25 -0.138,0 -0.25,0.112 -0.25,0.25 0,0.138 0.112,0.25 0.25,0.25 z m 1.502,0 c 0.138,0 0.25,-0.112 0.25,-0.25 0,-0.138 -0.112,-0.25 -0.25,-0.25 -0.137,0 -0.25,0.112 -0.25,0.25 0,0.138 0.113,0.25 0.25,0.25 z m 1.503,0 c 0.139,0 0.25,-0.112 0.25,-0.25 0,-0.138 -0.111,-0.25 -0.25,-0.25 -0.138,0 -0.25,0.112 -0.25,0.25 0,0.138 0.112,0.25 0.25,0.25 z m 1.503,0 c 0.137,0 0.25,-0.112 0.25,-0.25 0,-0.138 -0.113,-0.25 -0.25,-0.25 -0.138,0 -0.25,0.112 -0.25,0.25 0,0.138 0.112,0.25 0.25,0.25 z m 1.502,0 c 0.138,0 0.25,-0.112 0.25,-0.25 0,-0.138 -0.112,-0.25 -0.25,-0.25 -0.138,0 -0.25,0.112 -0.25,0.25 0,0.138 0.112,0.25 0.25,0.25 z m 1.503,0 c 0.138,0 0.25,-0.112 0.25,-0.25 0,-0.138 -0.112,-0.25 -0.25,-0.25 -0.139,0 -0.25,0.112 -0.25,0.25 0,0.138 0.111,0.25 0.25,0.25 z m 1.502,0 c 0.138,0 0.25,-0.112 0.25,-0.25 C 152.25,0.112 152.138,0 152,0 c -0.138,0 -0.25,0.112 -0.25,0.25 0,0.138 0.112,0.25 0.25,0.25 z m 1.503,0 c 0.138,0 0.25,-0.112 0.25,-0.25 0,-0.138 -0.112,-0.25 -0.25,-0.25 -0.139,0 -0.25,0.112 -0.25,0.25 0,0.138 0.111,0.25 0.25,0.25 z m 1.502,0 c 0.138,0 0.25,-0.112 0.25,-0.25 0,-0.138 -0.112,-0.25 -0.25,-0.25 -0.137,0 -0.25,0.112 -0.25,0.25 0,0.138 0.113,0.25 0.25,0.25 z m 1.503,0 c 0.137,0 0.25,-0.112 0.25,-0.25 0,-0.138 -0.113,-0.25 -0.25,-0.25 -0.139,0 -0.25,0.112 -0.25,0.25 0,0.138 0.111,0.25 0.25,0.25 z m 1.503,0 c 0.137,0 0.25,-0.112 0.25,-0.25 0,-0.138 -0.113,-0.25 -0.25,-0.25 -0.138,0 -0.25,0.112 -0.25,0.25 0,0.138 0.112,0.25 0.25,0.25 z m 1.502,0 c 0.137,0 0.25,-0.112 0.25,-0.25 0,-0.138 -0.113,-0.25 -0.25,-0.25 -0.139,0 -0.25,0.112 -0.25,0.25 0,0.138 0.111,0.25 0.25,0.25 z m 1.503,0 c 0.137,0 0.25,-0.112 0.25,-0.25 0,-0.138 -0.113,-0.25 -0.25,-0.25 -0.138,0 -0.25,0.112 -0.25,0.25 0,0.138 0.112,0.25 0.25,0.25 z m 1.502,0 c 0.137,0 0.25,-0.112 0.25,-0.25 0,-0.138 -0.113,-0.25 -0.25,-0.25 -0.139,0 -0.25,0.112 -0.25,0.25 0,0.138 0.111,0.25 0.25,0.25 z m 1.502,0 c 0.138,0 0.25,-0.112 0.25,-0.25 0,-0.138 -0.112,-0.25 -0.25,-0.25 -0.139,0 -0.25,0.112 -0.25,0.25 0,0.138 0.111,0.25 0.25,0.25 z m 1.503,0 c 0.137,0 0.25,-0.112 0.25,-0.25 0,-0.138 -0.113,-0.25 -0.25,-0.25 -0.139,0 -0.25,0.112 -0.25,0.25 0,0.138 0.111,0.25 0.25,0.25 z m 1.502,0 c 0.138,0 0.25,-0.112 0.25,-0.25 0,-0.138 -0.112,-0.25 -0.25,-0.25 -0.139,0 -0.25,0.112 -0.25,0.25 0,0.138 0.111,0.25 0.25,0.25 z m 1.503,0 c 0.138,0 0.25,-0.112 0.25,-0.25 0,-0.138 -0.112,-0.25 -0.25,-0.25 -0.139,0 -0.25,0.112 -0.25,0.25 0,0.138 0.111,0.25 0.25,0.25 z m 1.501,0 c 0.139,0 0.25,-0.112 0.25,-0.25 0,-0.138 -0.111,-0.25 -0.25,-0.25 -0.137,0 -0.25,0.112 -0.25,0.25 0,0.138 0.113,0.25 0.25,0.25 z m 1.503,0 c 0.139,0 0.25,-0.112 0.25,-0.25 0,-0.138 -0.111,-0.25 -0.25,-0.25 -0.138,0 -0.25,0.112 -0.25,0.25 0,0.138 0.112,0.25 0.25,0.25 z m 1.503,0 c 0.138,0 0.25,-0.112 0.25,-0.25 0,-0.138 -0.112,-0.25 -0.25,-0.25 -0.138,0 -0.25,0.112 -0.25,0.25 0,0.138 0.112,0.25 0.25,0.25 z m 1.502,0 c 0.139,0 0.25,-0.112 0.25,-0.25 0,-0.138 -0.111,-0.25 -0.25,-0.25 -0.138,0 -0.25,0.112 -0.25,0.25 0,0.138 0.112,0.25 0.25,0.25 z m 1.503,0 c 0.137,0 0.25,-0.112 0.25,-0.25 0,-0.138 -0.113,-0.25 -0.25,-0.25 -0.138,0 -0.25,0.112 -0.25,0.25 0,0.138 0.112,0.25 0.25,0.25 z m 1.502,0 c 0.139,0 0.25,-0.112 0.25,-0.25 0,-0.138 -0.111,-0.25 -0.25,-0.25 -0.138,0 -0.25,0.112 -0.25,0.25 0,0.138 0.112,0.25 0.25,0.25 z m 1.502,0 c 0.138,0 0.25,-0.112 0.25,-0.25 0,-0.138 -0.112,-0.25 -0.25,-0.25 -0.137,0 -0.25,0.112 -0.25,0.25 0,0.138 0.113,0.25 0.25,0.25 z"
       transform="translate(165.815,109.35)"
       id="path7"
       inkscape:connector-curvature="0" />
  </g>
</svg>
